<?xml version="1.0" encoding="utf-8"?>
<!-- Generator: Adobe Illustrator 18.0.0, SVG Export Plug-In . SVG Version: 6.00 Build 0)  -->
<!DOCTYPE svg PUBLIC "-//W3C//DTD SVG 1.1//EN" "http://www.w3.org/Graphics/SVG/1.1/DTD/svg11.dtd">
<svg version="1.1" id="Layer_1" xmlns="http://www.w3.org/2000/svg" xmlns:xlink="http://www.w3.org/1999/xlink" x="0px" y="0px"
	 viewBox="0 0 167.8 70" enable-background="new 0 0 167.8 70" xml:space="preserve">
<rect x="57.2" y="35.3" fill="#FFFFFF" width="18.3" height="12.1"/>
<g>
	<path fill="#FFFFFF" d="M80,46.2l0.5-0.7c0.7,0.5,1.5,0.8,2.3,0.8c0.8,0,1.4-0.4,1.4-1.1v0c0-0.7-0.8-0.9-1.7-1.2
		c-1-0.3-2.2-0.7-2.2-1.9v0c0-1.1,1-1.9,2.3-1.9c0.8,0,1.7,0.3,2.4,0.7l-0.5,0.7c-0.6-0.4-1.3-0.6-2-0.6c-0.8,0-1.3,0.4-1.3,1v0
		c0,0.6,0.8,0.9,1.7,1.1c1,0.3,2.1,0.7,2.1,1.9v0c0,1.3-1,2-2.4,2C81.8,47.1,80.7,46.8,80,46.2z"/>
	<path fill="#FFFFFF" d="M86.5,43.7L86.5,43.7c0-1.9,1.5-3.5,3.4-3.5c1.3,0,2,0.5,2.7,1.2l-0.7,0.7c-0.5-0.6-1.1-1-2-1
		c-1.3,0-2.4,1.1-2.4,2.6v0c0,1.4,1.1,2.6,2.4,2.6c0.8,0,1.5-0.4,2-1l0.6,0.6c-0.7,0.7-1.5,1.3-2.7,1.3C88,47.2,86.5,45.6,86.5,43.7
		z"/>
	<path fill="#FFFFFF" d="M94.3,37.6h1v3.9c0.4-0.7,1.1-1.3,2.3-1.3c1.6,0,2.5,1.1,2.5,2.7V47h-1v-3.9c0-1.2-0.7-2-1.8-2
		c-1.1,0-2,0.8-2,2.1V47h-1V37.6z"/>
	<path fill="#FFFFFF" d="M101.8,43.7L101.8,43.7c0-1.9,1.5-3.5,3.5-3.5c2,0,3.5,1.6,3.5,3.4v0c0,1.9-1.5,3.5-3.5,3.5
		C103.2,47.2,101.8,45.6,101.8,43.7z M107.7,43.7L107.7,43.7c0-1.5-1.1-2.6-2.5-2.6c-1.4,0-2.4,1.2-2.4,2.6v0c0,1.4,1.1,2.6,2.5,2.6
		C106.7,46.3,107.7,45.1,107.7,43.7z"/>
	<path fill="#FFFFFF" d="M110.1,43.7L110.1,43.7c0-1.9,1.5-3.5,3.5-3.5c2,0,3.5,1.6,3.5,3.4v0c0,1.9-1.5,3.5-3.5,3.5
		C111.5,47.2,110.1,45.6,110.1,43.7z M116,43.7L116,43.7c0-1.5-1.1-2.6-2.5-2.6c-1.4,0-2.4,1.2-2.4,2.6v0c0,1.4,1.1,2.6,2.5,2.6
		C115,46.3,116,45.1,116,43.7z"/>
	<path fill="#FFFFFF" d="M118.9,37.6h1V47h-1V37.6z"/>
</g>
<g>
	<g>
		<path fill="#0089BB" d="M73.2,20H52.7c-2.6,0-4.7,2.1-4.7,4.7v20.6c0,2.6,2.1,4.7,4.7,4.7h20.6c2.6,0,4.7-2.1,4.7-4.7V24.7
			C78,22.1,75.8,20,73.2,20z M65.4,46.9h-1.9v-0.7C63,46.7,62.3,47,61.4,47c-1.3,0-2.4-0.7-2.4-2.1v0c0-1.5,1.1-2.2,2.8-2.2
			c0.7,0,1.2,0.1,1.7,0.3v-0.1c0-0.8-0.5-1.3-1.5-1.3c-0.7,0-1.3,0.1-1.9,0.4l-0.5-1.5c0.8-0.3,1.5-0.6,2.7-0.6
			c1.1,0,1.8,0.3,2.3,0.8c0.5,0.5,0.7,1.3,0.7,2.2V46.9z M69.1,46.9h-2v-9.4h2V46.9z M74.8,41.7h-1.6v2.9c0,0.5,0.2,0.7,0.6,0.7
			c0.4,0,0.7-0.1,1-0.2v1.6c-0.4,0.2-0.9,0.4-1.5,0.4c-1.2,0-2-0.5-2-2.1v-3.3h-0.8V40h0.8v-1.8h2V40h1.6
			C74.8,40,74.8,41.7,74.8,41.7z M60.9,44.8L60.9,44.8c0,0.6,0.4,0.9,1.1,0.9c0.9,0,1.5-0.5,1.5-1.2v-0.3c-0.3-0.2-0.8-0.3-1.2-0.3
			C61.4,43.9,60.9,44.2,60.9,44.8z"/>
	</g>
</g>
</svg>
